<?xml version="1.0" encoding="iso-8859-1"?>
<!-- Generator: Adobe Illustrator 21.0.0, SVG Export Plug-In . SVG Version: 6.00 Build 0)  -->
<svg version="1.1" id="Capa_1" xmlns="http://www.w3.org/2000/svg" xmlns:xlink="http://www.w3.org/1999/xlink" x="0px" y="0px"
	 viewBox="0 0 512 512" style="enable-background:new 0 0 512 512;" xml:space="preserve">
<path style="fill:#424EDE;" d="M490.807,153.877c-24.473-17.544-151.801-79.457-254.823-83.544L256,483.556h117.375
	C455.712,440.999,512,355.076,512,256C512,219.696,504.434,185.163,490.807,153.877z"/>
<path style="fill:#6AA9FF;" d="M255.999,70.333c-101.38-4.022-193.666,40-222.377,58.773C12.231,166.509,0,209.825,0,256
	c0,99.076,56.288,184.999,138.625,227.556H256L255.999,70.333C256,70.333,256,70.333,255.999,70.333z"/>
<path style="fill:#FFCD00;" d="M283.016,371.658c12.611,0,24.069-1.579,34.431-4.229V250.881c-10.362-2.65-21.82-4.229-34.431-4.229
	c-9.676,0-18.671,0.933-27.016,2.562l-20.016,59.942L256,369.096C264.345,370.725,273.34,371.658,283.016,371.658z"/>
<path style="fill:#FF9100;" d="M396.34,309.155c0,0-23.982-44.23-78.892-58.274c-11.275,16.623-17.874,36.675-17.874,58.274
	s6.6,41.651,17.874,58.274C372.358,353.385,396.34,309.155,396.34,309.155z"/>
<path style="fill:#FFDE55;" d="M169.693,309.155c0,0,26.135,48.199,86.307,59.942V249.213
	C195.828,260.955,169.693,309.155,169.693,309.155z"/>
<path style="fill:#FFCD00;" d="M126.624,256.078H115.66v106.153h10.964c29.313,0,53.077-23.763,53.077-53.077
	C179.701,279.841,155.938,256.078,126.624,256.078z"/>
<path style="fill:#7ED8F6;" d="M490.807,153.877c-23.563-54.095-65.265-98.47-117.432-125.433H256l-20.016,47.889L256,140.28
	c23.03-8.154,46.117-16.288,92.176-16.288C423.853,123.992,437.523,145.948,490.807,153.877z"/>
<path style="fill:#BEEBFA;" d="M138.625,28.444C94.662,51.167,58.13,86.256,33.622,129.107c43.276,9.198,60.6,27.586,129.852,27.586
	c46.292,0,69.38-8.217,92.526-16.412V28.444H138.625z"/>
<g>
</g>
<g>
</g>
<g>
</g>
<g>
</g>
<g>
</g>
<g>
</g>
<g>
</g>
<g>
</g>
<g>
</g>
<g>
</g>
<g>
</g>
<g>
</g>
<g>
</g>
<g>
</g>
<g>
</g>
</svg>
