<svg height="512pt" viewBox="0 0 512.00036 512" width="512pt" xmlns="http://www.w3.org/2000/svg"><path d="m512 133.734375-73.179688 73.179687c-14.769531 14.769532-34.175781 22.15625-53.574218 22.15625-19.398438 0-38.796875-7.386718-53.5625-22.15625l-2.691406-2.6875-9.976563-9.96875-.632813-.632812-10.605468-10.609375-2.691406-2.6875c-14.308594-14.308594-22.1875-33.335937-22.1875-53.574219 0-20.238281 7.878906-39.253906 22.1875-53.5625l73.191406-73.191406 23.898437 23.90625c17.566407 17.570312 24.683594 41.6875 21.355469 64.574219.648438-.089844 1.289062-.179688 1.941406-.261719 22.296875-2.660156 45.5625 4.539062 62.628906 21.609375zm0 0" fill="#ffb74d"/><path d="m512 133.734375-73.179688 73.179687c-14.769531 14.769532-34.175781 22.15625-53.574218 22.15625-19.398438 0-38.796875-7.386718-53.5625-22.15625l-2.691406-2.6875-9.976563-9.96875 106.457031-106.039062c22.296875-2.660156 45.5625 4.539062 62.628906 21.609375zm0 0" fill="#ff9a00"/><path d="m253.914062 443.613281c-13.460937 12-28.507812 22.527344-44.894531 31.496094-32.40625 17.757813-70.101562 29.417969-111.367187 34.277344-16.398438 1.929687-31.316406 2.558593-43.835938 2.558593-23.027344 0-37.902344-2.140624-38.84375-2.277343l-10.96875-1.621094-.039062-.011719-1.628906-11.007812c-.601563-4.078125-14.25-100.925782 31.992187-189.4375 1.101563-2.097656 2.222656-4.167969 3.363281-6.21875 35.492188-63.691406 93.757813-105.144532 173.265625-123.273438 35.304688-8.046875 75.171875-11.4375 118.496094-10.078125l14.078125.449219.039062 1.332031.402344 12.738281c3.679688 116.742188-26.617187 204.582032-90.058594 261.074219zm0 0" fill="#ff633d"/><path d="m253.914062 443.613281c-13.460937 12-28.507812 22.527344-44.894531 31.496094-32.40625 17.757813-70.101562 29.417969-111.367187 34.277344-16.398438 1.929687-31.316406 2.558593-43.835938 2.558593-23.027344 0-37.902344-2.140624-38.84375-2.277343l-10.96875-1.621094 339.566406-338.246094.402344 12.738281c3.679688 116.742188-26.617187 204.582032-90.058594 261.074219zm0 0" fill="#e70021"/><path d="m209.019531 475.109375c-32.40625 17.757813-70.101562 29.417969-111.367187 34.277344-16.398438 1.929687-31.316406 2.558593-43.835938 2.558593-23.027344 0-37.902344-2.140624-38.84375-2.277343l-10.96875-1.621094-.039062-.011719-1.628906-11.007812c-.601563-4.078125-14.25-100.925782 31.992187-189.4375 1.101563-2.097656 2.222656-4.167969 3.363281-6.21875 13.945313 4.429687 38.285156 13.769531 64.898438 31.308594 13.25 8.726562 27.976562 20.15625 42.476562 34.84375 24.945313 25.277343 49.203125 60.203124 63.953125 107.585937zm0 0" fill="#ffc473"/><path d="m37.007812 399.96875 21.332032-21.332031 21.332031 21.332031-21.332031 21.332031zm0 0" fill="#ff633d"/><path d="m212.585938 367.894531-27.644532-11.628906-.082031.191406c.5625-1.441406 4.730469-13.308593-3.699219-24.886719-.929687-1.269531-2-2.53125-3.246094-3.78125-12.71875-12.707031-27.339843-7.699218-28.96875-7.078124l.191407-.082032-11.390625-27.746094c12.558594-5.148437 39.617187-8.058593 61.375 13.699219 1.21875 1.21875 2.359375 2.449219 3.417968 3.699219 18.039063 21.078125 15.019532 45.804688 10.046876 57.613281zm0 0" fill="#ffc473"/><g fill="#ffb74f"><path d="m145.066406 367.523438c24.945313 25.277343 49.203125 60.203124 63.953125 107.585937-32.40625 17.757813-70.101562 29.417969-111.367187 34.277344-16.398438 1.929687-31.316406 2.558593-43.835938 2.558593-23.027344 0-37.902344-2.140624-38.84375-2.277343l-10.96875-1.621094zm0 0"/><path d="m202.539062 310.28125c18.039063 21.078125 15.019532 45.804688 10.046876 57.613281l-27.644532-11.628906-.082031.191406c.5625-1.441406 4.730469-13.308593-3.699219-24.886719zm0 0"/></g></svg>